HIERARCHY
ROOT Hips
{
	OFFSET 0.00000 0.00000 0.00000
	CHANNELS 6 Xposition Yposition Zposition Zrotation Yrotation Xrotation 
	JOINT LHipJoint
	{
		OFFSET 0 0 0
		CHANNELS 3 Zrotation Yrotation Xrotation
		JOINT LeftUpLeg
		{
			OFFSET 1.53139 -1.83434 0.76626
			CHANNELS 3 Zrotation Yrotation Xrotation
			JOINT LeftLeg
			{
				OFFSET 2.56112 -7.03663 0.00000
				CHANNELS 3 Zrotation Yrotation Xrotation
				JOINT LeftFoot
				{
					OFFSET 2.59983 -7.14299 0.00000
					CHANNELS 3 Zrotation Yrotation Xrotation
					JOINT LeftToeBase
					{
						OFFSET 0.13742 -0.37757 2.00054
						CHANNELS 3 Zrotation Yrotation Xrotation
						End Site
						{
							OFFSET 0.00000 -0.00000 1.02897
						}
					}
				}
			}
		}
	}
	JOINT RHipJoint
	{
		OFFSET 0 0 0
		CHANNELS 3 Zrotation Yrotation Xrotation
		JOINT RightUpLeg
		{
			OFFSET -1.40122 -1.83435 0.76627
			CHANNELS 3 Zrotation Yrotation Xrotation
			JOINT RightLeg
			{
				OFFSET -2.54052 -6.98003 0.00000
				CHANNELS 3 Zrotation Yrotation Xrotation
				JOINT RightFoot
				{
					OFFSET -2.63179 -7.23079 0.00000
					CHANNELS 3 Zrotation Yrotation Xrotation
					JOINT RightToeBase
					{
						OFFSET -0.24131 -0.66299 2.03908
						CHANNELS 3 Zrotation Yrotation Xrotation
						End Site
						{
							OFFSET -0.00000 -0.00000 1.07391
						}
					}
				}
			}
		}
	}
	JOINT LowerBack
	{
		OFFSET 0 0 0
		CHANNELS 3 Zrotation Yrotation Xrotation
		JOINT Spine
		{
			OFFSET 0.01174 2.10302 -0.29778
			CHANNELS 3 Zrotation Yrotation Xrotation
			JOINT Spine1
			{
				OFFSET 0.00772 2.13227 -0.01247
				CHANNELS 3 Zrotation Yrotation Xrotation
				JOINT Neck
				{
					OFFSET 0 0 0
					CHANNELS 3 Zrotation Yrotation Xrotation
					JOINT Neck1
					{
						OFFSET -0.09219 1.60848 0.31481
						CHANNELS 3 Zrotation Yrotation Xrotation
						JOINT Head
						{
							OFFSET 0.13974 1.65456 -0.31134
							CHANNELS 3 Zrotation Yrotation Xrotation
							End Site
							{
								OFFSET 0.04742 1.69515 -0.14578
							}
						}
					}
				}
				JOINT LeftShoulder
				{
					OFFSET 0 0 0
					CHANNELS 3 Zrotation Yrotation Xrotation
					JOINT LeftArm
					{
						OFFSET 3.24909 1.02882 -0.23993
						CHANNELS 3 Zrotation Yrotation Xrotation
						JOINT LeftForeArm
						{
							OFFSET 5.32955 -0.00000 -0.00000
							CHANNELS 3 Zrotation Yrotation Xrotation
							JOINT LeftHand
							{
								OFFSET 3.69232 -0.00000 -0.00000
								CHANNELS 3 Zrotation Yrotation Xrotation
								JOINT LeftFingerBase
								{
									OFFSET 0 0 0
									CHANNELS 3 Zrotation Yrotation Xrotation
									JOINT LeftHandIndex1
									{
										OFFSET 0.53660 -0.00000 -0.00000
										CHANNELS 3 Zrotation Yrotation Xrotation
										End Site
										{
											OFFSET 0.43262 -0.00000 -0.00000
										}
									}
								}
								JOINT LThumb
								{
									OFFSET 0 0 0
									CHANNELS 3 Zrotation Yrotation Xrotation
									End Site
									{
										OFFSET 0.43922 -0.00000 0.43922
									}
								}
							}
						}
					}
				}
				JOINT RightShoulder
				{
					OFFSET 0 0 0
					CHANNELS 3 Zrotation Yrotation Xrotation
					JOINT RightArm
					{
						OFFSET -3.21387 0.93002 -0.34594
						CHANNELS 3 Zrotation Yrotation Xrotation
						JOINT RightForeArm
						{
							OFFSET -5.23431 -0.00000 0.00000
							CHANNELS 3 Zrotation Yrotation Xrotation
							JOINT RightHand
							{
								OFFSET -3.55301 -0.00000 -0.00000
								CHANNELS 3 Zrotation Yrotation Xrotation
								JOINT RightFingerBase
								{
									OFFSET 0 0 0
									CHANNELS 3 Zrotation Yrotation Xrotation
									JOINT RightHandIndex1
									{
										OFFSET -0.77252 -0.00000 -0.00000
										CHANNELS 3 Zrotation Yrotation Xrotation
										End Site
										{
											OFFSET -0.62283 -0.00000 -0.00000
										}
									}
								}
								JOINT RThumb
								{
									OFFSET 0 0 0
									CHANNELS 3 Zrotation Yrotation Xrotation
									End Site
									{
										OFFSET -0.63234 -0.00000 0.63234
									}
								}
							}
						}
					}
				}
			}
		}
	}
}
MOTION
Frames: 4
Frame Time: 0.5
0.00 0.00 0.00 0 0 0 0 0 0 -21 0 0 0 0 0 0 0 0 0 0 0 0 0 0 21 0 0 0 0 0 0 0 0 0 0 0 0 0 0 0 0 0 0 0 0 0 0 -16 0 0 21 0 0 11 0 0 0 -8 0 0 0 0 0 0 0 0 0 0 0 0 0 0 0 0 0 0 0 0 8 0 0 0 0 0 0 0 0 0 0 0 0 0 0 0 0 0
0.00 0.00 0.00 47.4697 -81.8982 -47.1884 0.0000 0.0000 0.0000 -21.5654 -1.1903 -0.3653 0.6001 4.9590 13.7917 0.2224 -5.4286 -8.6496 2.0745 -9.0195 -25.8564 0.0000 0.0000 0.0000 2.1785 13.2669 -2.1990 -4.6346 -12.9601 39.2195 -0.5375 -5.3927 -16.8679 -0.7072 -5.3748 14.9806 -2.2629 1.8055 11.9686 0.1544 2.0760 -0.1858 1.0697 1.0878 -7.0078 -8.0869 0.3069 -25.4650 4.0318 2.2339 30.3464 3.4513 0.4718 14.6105 0.0000 -0.0000 0.0000 -85.5248 2.2654 17.9204 18.6307 -28.9572 -4.8507 -0.0000 -0.0000 2.3834 23.1790 20.4300 8.5003 -7.1250 0.0000 -0.0000 -5.4546 51.9570 -0.9367 0.0000 -0.0000 0.0000 84.7104 -4.9612 1.3184 -18.0968 28.2809 -4.5950 0.0000 0.0000 6.5023 -15.8133 8.4248 -2.3761 7.1250 -0.0000 -0.0000 7.9848 -21.2632 4.5895
0.00 0.00 0.00 30.6198 -80.8780 -29.9919 0.0000 0.0000 0.0000 -25.0156 2.5267 -11.5529 3.0213 10.7294 31.3727 -0.3324 -19.7259 -10.8928 0.1197 -2.2303 -6.1426 0.0000 0.0000 0.0000 20.2159 5.4479 -9.9255 -4.2215 -12.4494 37.3409 -1.7025 4.7586 -23.6008 -0.3932 -4.0264 11.1510 0.3795 1.4557 11.9289 -0.9911 1.8974 -0.0365 -1.5888 0.8884 -6.6906 -10.2623 -0.4455 -23.7625 5.6376 1.2582 30.4731 4.2768 0.0127 14.3459 0.0000 0.0000 0.0000 -80.7967 0.6130 14.2961 20.5495 -31.2987 -5.8141 -0.0000 -0.0000 2.6949 23.0325 20.9550 8.6454 -7.1250 0.0000 -0.0000 -5.7598 52.4833 -1.0637 0.0000 0.0000 0.0000 89.5960 -5.0459 9.4907 -18.5462 28.8509 -4.8099 0.0000 0.0000 8.2342 -14.0004 10.2842 -2.5488 7.1250 -0.0000 -0.0000 9.2300 -19.4581 5.7021
0.00 0.00 0.00 176.0880 0.0242 -180.6050 0.0000 0.0000 0.0000 -3.2070 -11.4347 0.0444 1.3392 7.3272 20.6883 0.2132 5.4534 8.5001 0.2047 2.9129 8.0362 0.0000 0.0000 0.0000 7.9315 1.9533 -0.5064 -1.6860 -8.1789 23.2587 -0.6254 3.2523 -14.1862 -0.6274 5.0684 -14.1036 0.9053 0.6495 13.2443 0.4745 1.1124 -0.2137 -0.2300 0.5450 -7.6651 -11.8085 -2.9279 -23.0058 5.0325 -2.6942 30.8551 3.4621 -2.3204 14.7983 -0.0000 0.0000 0.0000 -85.5843 2.9817 17.6748 19.1817 -29.6438 -5.1204 -0.0000 -0.0000 7.5181 24.9882 15.8834 7.2688 -7.1250 0.0000 -0.0000 -2.6150 47.3913 -0.1544 -0.0000 0.0000 0.0000 82.7528 -3.7079 7.4344 -21.0054 31.8346 -6.0528 0.0000 0.0000 2.0486 -16.1413 9.1235 -2.6275 7.1250 -0.0000 -0.0000 7.7335 -20.5281 4.5718
